<svg width="87" height="12" viewBox="0 0 87 12" fill="none" xmlns="http://www.w3.org/2000/svg">
<path d="M12.5798 4.22554L8.68268 3.67806L6.94055 0.264102C6.89297 0.170629 6.81469 0.0949614 6.71799 0.0489671C6.47547 -0.0667604 6.18077 0.0296792 6.05951 0.264102L4.31738 3.67806L0.420236 4.22554C0.312792 4.24038 0.214557 4.28934 0.139346 4.36352C0.0484205 4.45386 -0.00168366 4.5754 4.32016e-05 4.70142C0.00177006 4.82745 0.0551867 4.94766 0.148556 5.03563L2.96819 7.69291L2.30204 11.4452C2.28642 11.5324 2.29641 11.6222 2.33088 11.7043C2.36536 11.7864 2.42293 11.8575 2.49708 11.9095C2.57123 11.9616 2.65898 11.9925 2.75039 11.9988C2.8418 12.0051 2.9332 11.9865 3.01424 11.9452L6.50003 10.1736L9.98582 11.9452C10.081 11.9941 10.1915 12.0104 10.2974 11.9926C10.5645 11.9481 10.7441 11.7033 10.698 11.4452L10.0319 7.69291L12.8515 5.03563C12.9283 4.96293 12.9789 4.86798 12.9943 4.76412C13.0357 4.50447 12.8484 4.26412 12.5798 4.22554Z" fill="#EEAA2B"/>
<path d="M30.5798 4.22554L26.6827 3.67806L24.9406 0.264102C24.893 0.170629 24.8147 0.0949614 24.718 0.0489671C24.4755 -0.0667604 24.1808 0.0296792 24.0595 0.264102L22.3174 3.67806L18.4202 4.22554C18.3128 4.24038 18.2146 4.28934 18.1393 4.36352C18.0484 4.45386 17.9983 4.5754 18 4.70142C18.0018 4.82745 18.0552 4.94766 18.1486 5.03563L20.9682 7.69291L20.302 11.4452C20.2864 11.5324 20.2964 11.6222 20.3309 11.7043C20.3654 11.7864 20.4229 11.8575 20.4971 11.9095C20.5712 11.9616 20.659 11.9925 20.7504 11.9988C20.8418 12.0051 20.9332 11.9865 21.0142 11.9452L24.5 10.1736L27.9858 11.9452C28.081 11.9941 28.1915 12.0104 28.2974 11.9926C28.5645 11.9481 28.7441 11.7033 28.698 11.4452L28.0319 7.69291L30.8515 5.03563C30.9283 4.96293 30.9789 4.86798 30.9943 4.76412C31.0357 4.50447 30.8484 4.26412 30.5798 4.22554Z" fill="#EEAA2B"/>
<path d="M49.5798 4.22554L45.6827 3.67806L43.9406 0.264102C43.893 0.170629 43.8147 0.0949614 43.718 0.0489671C43.4755 -0.0667604 43.1808 0.0296792 43.0595 0.264102L41.3174 3.67806L37.4202 4.22554C37.3128 4.24038 37.2146 4.28934 37.1393 4.36352C37.0484 4.45386 36.9983 4.5754 37 4.70142C37.0018 4.82745 37.0552 4.94766 37.1486 5.03563L39.9682 7.69291L39.302 11.4452C39.2864 11.5324 39.2964 11.6222 39.3309 11.7043C39.3654 11.7864 39.4229 11.8575 39.4971 11.9095C39.5712 11.9616 39.659 11.9925 39.7504 11.9988C39.8418 12.0051 39.9332 11.9865 40.0142 11.9452L43.5 10.1736L46.9858 11.9452C47.081 11.9941 47.1915 12.0104 47.2974 11.9926C47.5645 11.9481 47.7441 11.7033 47.698 11.4452L47.0319 7.69291L49.8515 5.03563C49.9283 4.96293 49.9789 4.86798 49.9943 4.76412C50.0357 4.50447 49.8484 4.26412 49.5798 4.22554Z" fill="#EEAA2B"/>
<path d="M67.5798 4.22554L63.6827 3.67806L61.9406 0.264102C61.893 0.170629 61.8147 0.0949614 61.718 0.0489671C61.4755 -0.0667604 61.1808 0.0296792 61.0595 0.264102L59.3174 3.67806L55.4202 4.22554C55.3128 4.24038 55.2146 4.28934 55.1393 4.36352C55.0484 4.45386 54.9983 4.5754 55 4.70142C55.0018 4.82745 55.0552 4.94766 55.1486 5.03563L57.9682 7.69291L57.302 11.4452C57.2864 11.5324 57.2964 11.6222 57.3309 11.7043C57.3654 11.7864 57.4229 11.8575 57.4971 11.9095C57.5712 11.9616 57.659 11.9925 57.7504 11.9988C57.8418 12.0051 57.9332 11.9865 58.0142 11.9452L61.5 10.1736L64.9858 11.9452C65.081 11.9941 65.1915 12.0104 65.2974 11.9926C65.5645 11.9481 65.7441 11.7033 65.698 11.4452L65.0319 7.69291L67.8515 5.03563C67.9283 4.96293 67.9789 4.86798 67.9943 4.76412C68.0357 4.50447 67.8484 4.26412 67.5798 4.22554Z" fill="#EEAA2B"/>
<path d="M86.5798 4.22554L82.6827 3.67806L80.9406 0.264102C80.893 0.170629 80.8147 0.0949614 80.718 0.0489671C80.4755 -0.0667604 80.1808 0.0296792 80.0595 0.264102L78.3174 3.67806L74.4202 4.22554C74.3128 4.24038 74.2146 4.28934 74.1393 4.36352C74.0484 4.45386 73.9983 4.5754 74 4.70142C74.0018 4.82745 74.0552 4.94766 74.1486 5.03563L76.9682 7.69291L76.302 11.4452C76.2864 11.5324 76.2964 11.6222 76.3309 11.7043C76.3654 11.7864 76.4229 11.8575 76.4971 11.9095C76.5712 11.9616 76.659 11.9925 76.7504 11.9988C76.8418 12.0051 76.9332 11.9865 77.0142 11.9452L80.5 10.1736L83.9858 11.9452C84.081 11.9941 84.1915 12.0104 84.2974 11.9926C84.5645 11.9481 84.7441 11.7033 84.698 11.4452L84.0319 7.69291L86.8515 5.03563C86.9283 4.96293 86.9789 4.86798 86.9943 4.76412C87.0357 4.50447 86.8484 4.26412 86.5798 4.22554Z" fill="#EEAA2B"/>
</svg>
