<svg width="17" height="15" viewBox="0 0 17 15" fill="none" xmlns="http://www.w3.org/2000/svg">
<path d="M2.80002 0.526367C2.05741 0.526367 1.34521 0.821369 0.820108 1.34648C0.295002 1.87158 0 2.58378 0 3.32639V3.60779L8.40007 8.13123L16.8001 3.60919V3.32639C16.8001 2.58378 16.5051 1.87158 15.98 1.34648C15.4549 0.821369 14.7427 0.526367 14.0001 0.526367H2.80002Z" fill="white"/>
<path d="M16.8001 5.19775L8.73188 9.54199C8.6299 9.59689 8.51589 9.62563 8.40007 9.62563C8.28426 9.62563 8.17025 9.59689 8.06827 9.54199L0 5.19775V11.726C0 12.4686 0.295002 13.1808 0.820108 13.7059C1.34521 14.231 2.05741 14.526 2.80002 14.526H14.0001C14.7427 14.526 15.4549 14.231 15.98 13.7059C16.5051 13.1808 16.8001 12.4686 16.8001 11.726V5.19775Z" fill="white"/>
</svg>
